<?xml version="1.0" encoding="utf-8"?>
<!-- Generator: Adobe Illustrator 21.1.0, SVG Export Plug-In . SVG Version: 6.00 Build 0)  -->
<svg version="1.1" xmlns="http://www.w3.org/2000/svg" xmlns:xlink="http://www.w3.org/1999/xlink" x="0px" y="0px"
	 viewBox="0 0 750 750" style="enable-background:new 0 0 750 750;" xml:space="preserve">
<style type="text/css">
	.st0{fill:#0D0D0D;stroke:#111111;stroke-miterlimit:10;}
	.st1{display:none;}
</style>
<g id="Glyph">
	<path id="Glyph_1_" class="st0" d="M597.3,266.3l14-24.3c1.3-2.3-0.3-5.2-3-5.2l-311.1,0c-1.2,0-2.4,0.7-3,1.7L138.7,508
		c-1.3,2.3,0.3,5.2,3,5.2h98.8c1.2,0,2.4-0.7,3-1.7l93.1-161.3c1.3-2.3,4.7-2.3,6,0l13.4,23.2c0.6,1.1,0.6,2.4,0,3.5L280.2,508
		c-1.3,2.3,0.3,5.2,3,5.2h28c1.2,0,2.4-0.7,3-1.7L383,392.3c0.6-1.1,1.8-1.7,3-1.7l137.5,0c1.2,0,2.4-0.7,3-1.7l14-24.3
		c1.3-2.3-0.3-5.2-3-5.2H386c-1.2,0-2.4-0.7-3-1.7l-13.4-23.2c-1.3-2.3,0.3-5.2,3-5.2h186.3c1.2,0,2.4-0.7,3-1.7l14-24.3
		c1.3-2.3-0.3-5.2-3-5.2l-240.3,0c-1.2,0-2.4,0.7-3,1.7L225.4,480.3c-0.6,1.1-1.8,1.7-3,1.7l-26.7,0c-2.7,0-4.3-2.9-3-5.2l119.5-207
		c0.6-1.1,1.8-1.7,3-1.7h279.1C595.6,268,596.7,267.4,597.3,266.3z"/>
</g>
<g id="Guides" class="st1">
</g>
</svg>
