<?xml version="1.0" encoding="utf-8"?>
<!-- Generator: Adobe Illustrator 21.1.0, SVG Export Plug-In . SVG Version: 6.00 Build 0)  -->
<svg version="1.1" xmlns="http://www.w3.org/2000/svg" xmlns:xlink="http://www.w3.org/1999/xlink" x="0px" y="0px"
	 viewBox="0 0 750 750" style="enable-background:new 0 0 750 750;" xml:space="preserve">
<style type="text/css">
	.st0{display:none;}
	.st1{display:inline;}
	.st2{fill:#F2F2F2;}
	.st3{display:inline;fill:none;}
</style>
<g id="Background" class="st0">
	<rect class="st1" width="750" height="750"/>
</g>
<g id="Glyph">
	<path id="Glyph_1_" class="st2" d="M599.1,263.2l12.2-21.1c1.4-2.3-0.3-5.3-3-5.3l-311,0c-1.3,0-2.4,0.7-3,1.8L138.7,507.9
		c-1.4,2.3,0.3,5.3,3,5.3l96.1,0h1.9l96.4-166.9c1.4-2.3,4.7-2.3,6.1,0l15.6,27c0.6,1.1,0.6,2.4,0,3.5l-75.7,131.1
		c-1.4,2.3,0.3,5.3,3,5.3l24.3,0c1.3,0,2.4-0.7,3-1.8l69.6-120.6c0.6-1.1,1.8-1.8,3-1.8l139.3,0c1.3,0,2.4-0.7,3-1.8l12.2-21.1
		c1.4-2.3-0.3-5.3-3-5.3H385.1c-1.3,0-2.4-0.7-3-1.8l-15.6-27c-1.4-2.3,0.3-5.3,3-5.3l190.7,0c1.3,0,2.4-0.7,3-1.8l12.2-21.1
		c1.4-2.3-0.3-5.3-3-5.3l-225.1,0l0,0l0,0h-14.2c-1.3,0-2.4,0.7-3,1.8L224.6,483.3c-0.6,1.1-1.8,1.8-3,1.8l-31.1,0
		c-2.7,0-4.4-2.9-3-5.3l123.1-213.2c0.6-1.1,1.8-1.8,3-1.8h282.6C597.3,264.9,598.5,264.2,599.1,263.2z"/>
</g>
<g id="Guides" class="st0">
	<rect x="138.2" y="236.8" class="st3" width="473.5" height="276.4"/>
</g>
</svg>
