      <svg
        version="1.1"
        id="Layer_1"
        x="0px"
        y="0px"
        viewBox="0 0 363.9 212.5"
      >
        <path
          id="Glyph"
          d="M341.9,28l10-17.6c1-1.6-0.3-3.7-2.1-3.7H126c-0.8,0-1.8,0.5-2.1,1.3L12,202c-1,1.6,0.3,3.7,2.1,3.7
        h71c0.8,0,1.8-0.5,2.1-1.3l67.1-116.1c1-1.6,3.4-1.6,4.2,0l9.7,16.8c0.5,0.8,0.5,1.8,0,2.6L113.7,202c-1,1.6,0.3,3.7,2.1,3.7H136
        c0.8,0,1.8-0.5,2.1-1.3l49.5-85.7c0.5-0.8,1.3-1.3,2.1-1.3h99.1c0.8,0,1.8-0.5,2.1-1.3l10-17.6c1-1.6-0.3-3.7-2.1-3.7h-109
        c-0.8,0-1.8-0.5-2.1-1.3l-9.7-16.8c-1-1.6,0.3-3.7,2.1-3.7h134.2c0.8,0,1.8-0.5,2.1-1.3l10-17.6c1-1.6-0.3-3.7-2.1-3.7h-173
        c-0.8,0-1.8,0.5-2.1,1.3l-74.7,130c-0.5,0.8-1.3,1.3-2.1,1.3H53.1c-1.8,0-3.1-2.1-2.1-3.7l86-149.1c0.5-0.8,1.3-1.3,2.1-1.3h201
        C340.6,29.3,341.4,28.8,341.9,28z"
        />
      </svg>
